# File created by Blade
# Date/Time:  Thu Jan 22 16:36:26 2015
# Frame Rate: 120.000 fps
#------------------------------------------------------
:FULLY-SPECIFIED
:DEGREES
1726
root 0.395575 5.092932 -9.390905 -16.852404 -16.352899 27.055355
RightUpLeg -96.720501 -0.465238 52.941098
RightLeg 127.806392 -0.000000 -0.000000
RightFoot -16.580646 20.340748 -4.121933
RightToeBase -192.457368 -0.000000 -0.000000
LeftUpLeg -20.245478 0.535846 41.588038
LeftLeg 147.521017 -0.000000 -0.000000
LeftFoot 24.672270 7.363850 -17.633424
LeftToeBase 13.943605 -0.000000 -0.000000
Spine 33.102694 11.718246 -15.086315
RightShoulder 6.892812 -19.693841 -28.905554
RightArm 5.878745 -30.909949 72.037715
RightForeArm 12.674496 0.000000 50.604105
RightHand 9.091391 -0.000000 -17.847265
RightHandThumb1 -24.326973 -0.000000 -32.862282
LeftShoulder -24.667962 28.440157 -10.728387
LeftArm 33.036237 -10.107897 -77.098491
LeftForeArm 23.759616 -0.000000 27.100564
LeftHand -9.703163 -0.000000 -18.670645
LeftHandThumb1 -26.253704 0.000000 33.147579
Head -23.939341 8.801686 -23.652709
1727
root 0.425508 5.083307 -9.389147 -16.931087 -16.347323 26.802975
RightUpLeg -96.799552 -0.508986 53.202964
RightLeg 127.963953 -0.000000 -0.000000
RightFoot -16.604315 19.366384 -4.003019
RightToeBase -193.092249 -0.000000 -0.000000
LeftUpLeg -20.252858 0.240230 41.825601
LeftLeg 147.563595 -0.000000 -0.000000
LeftFoot 25.008982 7.199774 -17.632531
LeftToeBase 13.880893 -0.000000 -0.000000
Spine 33.064200 11.843711 -15.108977
RightShoulder 6.868783 -19.625885 -29.031043
RightArm 5.715972 -30.577179 72.184853
RightForeArm 12.444732 -0.000000 51.062514
RightHand 8.474216 -0.000000 -17.098313
RightHandThumb1 -24.326973 -0.000000 -32.862282
LeftShoulder -24.750451 28.567035 -10.651958
LeftArm 32.846764 -10.215865 -77.259475
LeftForeArm 23.732351 -0.000000 27.714770
LeftHand -9.708089 -0.000000 -18.690924
LeftHandThumb1 -26.253704 0.000000 33.147579
Head -23.968590 8.687997 -23.603576
1728
root 0.459727 5.069774 -9.385632 -16.976084 -16.387594 26.593788
RightUpLeg -96.913440 -0.513166 53.404636
RightLeg 128.136776 -0.000000 -0.000000
RightFoot -16.506255 18.983703 -4.199071
RightToeBase -193.629392 -0.000000 -0.000000
LeftUpLeg -20.289025 0.037269 42.043482
LeftLeg 147.547103 -0.000000 -0.000000
LeftFoot 25.700485 7.020273 -17.306668
LeftToeBase 12.619926 -0.000000 -0.000000
Spine 32.956548 12.071977 -15.138582
RightShoulder 6.796697 -19.593403 -29.122615
RightArm 5.480241 -30.259533 72.314682
RightForeArm 12.874253 -0.000000 51.601625
RightHand 8.415474 -0.000000 -16.765177
RightHandThumb1 -24.326973 -0.000000 -32.862282
LeftShoulder -24.799325 28.682592 -10.518056
LeftArm 32.623267 -10.238144 -77.340037
LeftForeArm 23.611948 0.000000 28.298070
LeftHand -9.718463 -0.000000 -18.677494
LeftHandThumb1 -26.253704 0.000000 33.147579
Head -23.978685 8.534706 -23.539416
1729
root 0.489424 5.059586 -9.381185 -17.051057 -16.440542 26.355399
RightUpLeg -96.981434 -0.598099 53.493562
RightLeg 128.276509 -0.000000 -0.000000
RightFoot -16.673016 21.077757 -4.693548
RightToeBase -193.272857 -0.000000 -0.000000
LeftUpLeg -20.258223 -0.258444 42.310153
LeftLeg 147.528571 -0.000000 -0.000000
LeftFoot 26.221348 6.659319 -17.099098
LeftToeBase 12.540597 -0.000000 -0.000000
Spine 32.909702 12.282406 -15.128142
RightShoulder 6.778166 -19.568827 -29.221722
RightArm 5.219478 -29.937421 72.445523
RightForeArm 13.469123 0.000000 52.233873
RightHand 8.333154 0.000000 -17.202898
RightHandThumb1 -24.326973 -0.000000 -32.862282
LeftShoulder -24.927154 28.822711 -10.464806
LeftArm 32.494500 -10.201489 -77.332202
LeftForeArm 23.479700 -0.000000 28.827718
LeftHand -9.643379 -0.000000 -18.637480
LeftHandThumb1 -26.253704 0.000000 33.147579
Head -24.042331 8.465650 -23.531295
1730
root 0.523729 5.051475 -9.379422 -17.107005 -16.431010 26.164570
RightUpLeg -97.132037 -0.683269 53.594161
RightLeg 128.433426 -0.000000 -0.000000
RightFoot -16.415903 21.249719 -4.951628
RightToeBase -193.599968 -0.000000 -0.000000
LeftUpLeg -20.282636 -0.569415 42.469913
LeftLeg 147.535677 -0.000000 -0.000000
LeftFoot 26.626997 6.221249 -16.886756
LeftToeBase 12.637548 -0.000000 -0.000000
Spine 32.859795 12.485053 -15.166388
RightShoulder 6.724156 -19.569886 -29.274975
RightArm 4.918678 -29.629956 72.565783
RightForeArm 14.363636 -0.000000 52.973615
RightHand 8.191189 0.000000 -17.581159
RightHandThumb1 -24.326973 -0.000000 -32.862282
LeftShoulder -24.935697 28.871492 -10.309932
LeftArm 32.191684 -10.111010 -77.229688
LeftForeArm 23.105673 -0.000000 29.466977
LeftHand -9.720211 0.000000 -18.696044
LeftHandThumb1 -26.253704 0.000000 33.147579
Head -24.132170 8.366071 -23.533892
1731
root 0.560577 5.043021 -9.376573 -17.162205 -16.444003 25.992395
RightUpLeg -97.278681 -0.743019 53.674261
RightLeg 128.629404 -0.000000 -0.000000
RightFoot -16.366350 21.358951 -5.271183
RightToeBase -194.044581 -0.000000 -0.000000
LeftUpLeg -20.277922 -0.816715 42.612345
LeftLeg 147.546893 -0.000000 -0.000000
LeftFoot 26.982929 5.814914 -16.578771
LeftToeBase 12.844533 -0.000000 -0.000000
Spine 32.785613 12.682396 -15.226121
RightShoulder 6.721147 -19.657054 -29.353662
RightArm 4.651474 -29.211734 72.681159
RightForeArm 15.571094 -0.000000 53.783446
RightHand 8.467592 0.000000 -18.877426
RightHandThumb1 -24.326973 -0.000000 -32.862282
LeftShoulder -25.061775 28.992609 -10.210072
LeftArm 32.072420 -9.972206 -77.137863
LeftForeArm 22.848958 -0.000000 29.940882
LeftHand -9.610282 -0.000000 -18.791610
LeftHandThumb1 -26.253704 0.000000 33.147579
Head -24.208992 8.362857 -23.518679
